<svg id="Calque_1" data-name="Calque 1" xmlns="http://www.w3.org/2000/svg" viewBox="0 0 175 47"><defs><style>.cls-1{fill:#cc984c}.cls-2{fill:#f1183e}</style></defs><path id="Fill-2" d="M159.4 23.5l-3.1 3.3c-.3.2-.3.6-.1.9l.1.1.5.5c.2.2.6.3.8.1l.1-.1 4.1-4.3c.3-.2.3-.6.1-.9l-.1-.1-4.1-4.3c-.2-.2-.6-.3-.8-.1l-.1.1-.5.5c-.3.2-.3.6-.1.9l.1.1 3.1 3.3z" fill="#cfa052" fill-rule="evenodd"/><path class="cls-1" d="M14.94 14.27l.72-.25V6.56l-.72-.25v-.17h2.9v.17l-.72.25v7.51h1.52c1.57 0 2.04-.75 2.32-2.29h.19v2.62h-6.21v-.17.03zM22.67 14.02V9.19l-.61-.25v-.17h1.96v5.25l.72.25v.17h-2.82v-.17l.72-.25h.03zm.69-8.12c.58 0 .86.41.86.88s-.3.83-.86.83-.86-.36-.86-.83.3-.88.86-.88zM28.69 12.91l1.41-3.73-.83-.22v-.17h2.1v.17l-.83.25-2.18 5.47h-.17l-2.37-5.47-.83-.25v-.17h3.12v.17l-.83.22 1.44 3.73h-.03zM33.77 11.42v2.6l.72.25v.17h-2.82v-.17l.72-.25V9.19l-.61-.25v-.17h1.96v1.38c.17-.88.75-1.52 1.66-1.52.72 0 1.38.36 1.38 1.22 0 .64-.36.97-1.02.97-.11 0-.25 0-.41-.08.17-.22.3-.5.3-.86 0-.39-.17-.75-.66-.75s-1.22.55-1.24 2.26l.03.03zM38.85 9.93c0 .41.14.66.33.91-.17.06-.33.08-.5.08-.58 0-.97-.3-.97-.88 0-.94.99-1.38 2.13-1.38s2.46.44 2.46 2.46v1.93c0 .64.17.83.39.83.28 0 .5-.25.5-.86h.22c0 1.05-.52 1.52-1.3 1.52-.61 0-.99-.25-1.13-.83-.41.47-1.13.86-2.02.86-1.05 0-1.63-.52-1.63-1.46 0-.99.64-1.74 3.2-1.74h.41v-.3c0-1.74-.36-2.13-1.08-2.13s-.99.47-.99.99h-.03zm2.07 1.71h-.41c-1.35 0-1.79.52-1.79 1.3s.44 1.02.91 1.02c.41 0 .88-.17 1.3-.66v-1.66zM44.68 14.02V9.19l-.61-.25v-.17h1.96v5.25l.72.25v.17h-2.82v-.17l.72-.25h.03zm.72-8.12c.58 0 .86.41.86.88s-.3.83-.86.83-.86-.36-.86-.83.3-.88.86-.88zM48.85 9.71c0 1.27 3.4.91 3.4 3.09 0 1.16-1.13 1.71-2.46 1.71-1.16 0-2.18-.33-2.18-1.24 0-.52.36-.77.86-.77.14 0 .33 0 .52.06-.22.17-.33.39-.33.75 0 .55.36.88 1.13.88s1.3-.3 1.3-.94c0-1.6-3.31-1.19-3.31-3.12 0-.97.99-1.55 2.21-1.55 1.05 0 2.07.33 2.07 1.16 0 .5-.39.77-.86.77-.11 0-.3 0-.47-.08.17-.22.28-.36.28-.69 0-.58-.33-.88-1.02-.88s-1.13.3-1.13.8v.06zM56.3 14.54c-1.79 0-3.04-1.27-3.04-3.01s1.27-2.87 3.04-2.87 3.04 1.19 3.04 2.87-1.27 3.01-3.04 3.01zm0-.27c1.24 0 1.57-1.46 1.57-2.73s-.33-2.62-1.57-2.62-1.57 1.41-1.57 2.62.33 2.73 1.57 2.73zM60.36 8.94v-.17h1.96v1.02c.17-.66.88-1.16 1.77-1.16.94 0 1.93.52 1.93 2.04v3.31l.72.25v.17h-2.1v-3.62c0-.83-.28-1.57-1.1-1.57-.61 0-1.24.39-1.24 1.52v3.26l.72.25v.17H60.2v-.17l.72-.25V9.16l-.61-.25.06.03z"/><g><path class="cls-1" d="M20.34 23.77c-.36 0-.66-.03-.97-.11-.41.08-.58.3-.58.58 0 .33.3.47 1.16.47h.8c2.29 0 3.01.69 3.01 1.74 0 1.46-1.57 1.79-3.18 1.79-1.38 0-2.98-.19-2.98-1.3 0-.52.41-.99 1.49-1.16-.8-.14-1.13-.64-1.13-1.13s.33-.94 1.02-1.16c-.77-.36-1.27-.99-1.27-1.71 0-1.08 1.1-1.91 2.68-1.91.39 0 .77.06 1.1.17.14-.61.66-1.1 1.49-1.1.55 0 1.22.22 1.22.83 0 .47-.36.77-.94.77-.14 0-.28 0-.47-.08.28-.19.39-.41.39-.69 0-.25-.11-.47-.47-.47-.39 0-.8.3-.88.86.72.33 1.16.91 1.16 1.6 0 1.1-1.08 1.99-2.62 1.99l-.03.03zm-1.8 3.15c0 .75.69 1.02 2.04 1.02s2.13-.3 2.13-1.08c0-.61-.44-.94-2.02-.94h-1.02c-.64.11-1.13.41-1.13 1.02v-.03zm1.77-3.42c.94 0 1.22-.88 1.22-1.71s-.28-1.6-1.22-1.6-1.27.77-1.27 1.63c0 .77.3 1.66 1.24 1.66l.03.03zM25.94 21.18c0 .41.14.66.33.91-.17.06-.33.08-.5.08-.58 0-.97-.3-.97-.88 0-.94.99-1.38 2.13-1.38s2.46.44 2.46 2.46v1.93c0 .64.17.83.39.83.28 0 .5-.25.5-.86h.22c0 1.05-.52 1.52-1.3 1.52-.61 0-.99-.25-1.13-.83-.41.47-1.13.86-2.02.86-1.05 0-1.63-.52-1.63-1.46 0-.99.64-1.74 3.2-1.74h.41v-.3c0-1.74-.36-2.13-1.08-2.13s-.99.47-.99.99h-.03zm2.07 1.71h-.41c-1.35 0-1.79.52-1.79 1.3s.44 1.02.91 1.02c.41 0 .88-.17 1.3-.66v-1.66zM33.15 22.67v2.6l.72.25v.17h-2.82v-.17l.72-.25v-4.83l-.61-.25v-.17h1.96v1.38c.17-.88.75-1.52 1.66-1.52.72 0 1.38.36 1.38 1.22 0 .64-.36.97-1.02.97-.11 0-.25 0-.41-.08.17-.22.3-.5.3-.86 0-.39-.17-.75-.66-.75s-1.22.55-1.24 2.26l.03.03zM38.23 21.18c0 .41.14.66.33.91-.17.06-.33.08-.5.08-.58 0-.97-.3-.97-.88 0-.94.99-1.38 2.13-1.38s2.46.44 2.46 2.46v1.93c0 .64.17.83.39.83.28 0 .5-.25.5-.86h.22c0 1.05-.52 1.52-1.3 1.52-.61 0-.99-.25-1.13-.83-.41.47-1.13.86-2.02.86-1.05 0-1.63-.52-1.63-1.46 0-.99.64-1.74 3.2-1.74h.41v-.3c0-1.74-.36-2.13-1.08-2.13s-.99.47-.99.99h-.03zm2.1 1.71h-.41c-1.35 0-1.79.52-1.79 1.3s.44 1.02.91 1.02c.41 0 .88-.17 1.3-.66v-1.66zM43.48 20.18v-.17h1.96v1.02c.17-.66.88-1.16 1.77-1.16.94 0 1.93.52 1.93 2.04v3.31l.72.25v.17h-2.1v-3.62c0-.83-.28-1.57-1.1-1.57-.61 0-1.24.39-1.24 1.52v3.26l.72.25v.17h-2.82v-.17l.72-.25V20.4l-.61-.25.06.03zM52.53 20.02h1.55v.3h-1.55v3.48c0 1.27.25 1.46.66 1.46s.75-.36.75-1.38h.22c0 1.27-.41 1.88-1.46 1.88-.97 0-1.55-.5-1.55-2.02v-3.45h-.72v-.3h.72c.58 0 1.05-.66 1.13-2.04h.25v2.07zM55.6 25.26v-4.83l-.61-.25v-.17h1.96v5.25l.72.25v.17h-2.82v-.17l.72-.25h.03zm.72-8.11c.58 0 .86.41.86.88s-.3.83-.86.83-.86-.36-.86-.83.3-.88.86-.88zM64.08 22.75v.17h-4.06c0 .97.17 2.51 1.79 2.51.99 0 1.71-.5 1.93-.99l.22.11c-.33.58-1.02 1.19-2.35 1.19-1.99 0-3.07-1.13-3.07-2.93s1.22-2.95 2.84-2.95 2.68 1.19 2.68 2.87v.03zm-4.06-.14h2.68c0-1.02-.25-2.46-1.3-2.46s-1.35 1.35-1.38 2.46z"/></g><g><path class="cls-1" d="M12.62 32.91c0 .41.14.66.33.91-.17.06-.33.08-.5.08-.58 0-.97-.3-.97-.88 0-.94.99-1.38 2.13-1.38s2.46.44 2.46 2.46v1.93c0 .64.17.83.39.83.28 0 .5-.25.5-.86h.22c0 1.05-.52 1.52-1.3 1.52-.61 0-.99-.25-1.13-.83-.41.47-1.13.86-2.02.86-1.05 0-1.63-.52-1.63-1.46 0-.99.64-1.74 3.2-1.74h.41v-.3c0-1.74-.36-2.13-1.08-2.13s-.99.47-.99.99h-.03zm2.07 1.71h-.41c-1.35 0-1.79.52-1.79 1.3s.44 1.02.91 1.02c.41 0 .88-.17 1.3-.66v-1.66zM20.6 35.89l1.41-3.73-.83-.22v-.17h2.1v.17l-.83.25-2.18 5.47h-.17l-2.37-5.47-.83-.25v-.17h3.12v.17l-.83.22 1.44 3.73h-.03zM24.99 32.91c0 .41.14.66.33.91-.17.06-.33.08-.5.08-.58 0-.97-.3-.97-.88 0-.94.99-1.38 2.13-1.38s2.46.44 2.46 2.46v1.93c0 .64.17.83.39.83.28 0 .5-.25.5-.86h.22c0 1.05-.52 1.52-1.3 1.52-.61 0-.99-.25-1.13-.83-.41.47-1.13.86-2.02.86-1.05 0-1.63-.52-1.63-1.46 0-.99.64-1.74 3.2-1.74h.41v-.3c0-1.74-.36-2.13-1.08-2.13s-.99.47-.99.99h-.03zm2.07 1.71h-.41c-1.35 0-1.79.52-1.79 1.3s.44 1.02.91 1.02c.41 0 .88-.17 1.3-.66v-1.66zM30.21 31.92v-.17h1.96v1.02c.17-.66.88-1.16 1.77-1.16.94 0 1.93.52 1.93 2.04v3.31l.72.25v.17h-2.1v-3.62c0-.83-.28-1.57-1.1-1.57-.61 0-1.24.39-1.24 1.52v3.26l.72.25v.17h-2.82v-.17l.72-.25v-4.83l-.61-.25.06.03zM39.3 31.75h1.55v.3H39.3v3.48c0 1.27.25 1.46.66 1.46s.75-.36.75-1.38h.22c0 1.27-.41 1.88-1.46 1.88-.97 0-1.55-.5-1.55-2.02v-3.45h-.72v-.3h.72c.58 0 1.05-.66 1.13-2.04h.25v2.07zM46.17 30.56v6.43l.83.25v.17h-2.15v-.17l.83-.25v-7.46l-.72-.25v-.17h1.99l4.36 5.69v-5.3l-.83-.25v-.17h2.15v.17l-.83.25v7.98h-.25l-5.41-6.96.03.03zM56.53 37.52c-1.79 0-3.04-1.27-3.04-3.01s1.27-2.87 3.04-2.87 3.04 1.19 3.04 2.87-1.27 3.01-3.04 3.01zm0-.27c1.24 0 1.57-1.46 1.57-2.73s-.33-2.62-1.57-2.62-1.57 1.41-1.57 2.62.33 2.73 1.57 2.73zM66.11 34.48v.17h-4.06c0 .97.17 2.51 1.79 2.51.99 0 1.71-.5 1.93-.99l.22.11c-.33.58-1.02 1.19-2.35 1.19-1.99 0-3.07-1.13-3.07-2.93s1.22-2.95 2.84-2.95 2.68 1.19 2.68 2.87v.03zm-4.06-5.16c.52 0 .8.36.8.8s-.28.77-.8.77-.8-.33-.8-.77.28-.8.8-.8zm0 5.03h2.68c0-1.02-.25-2.46-1.3-2.46s-1.35 1.35-1.38 2.46zm2.74-5.03c.52 0 .8.36.8.8s-.28.77-.8.77-.8-.33-.8-.77.28-.8.8-.8zM67.66 37v-8.04l-.72-.25v-.17h2.07v8.45l.72.25v.17h-2.82v-.17l.72-.25h.03z"/></g><g><path class="cls-2" d="M109.58 13.34a.63.63 0 01-.29.1c-.16 0-.19-.14-.19-.26v-3.14h-.07c-.12 0-.3.07-.51.11-.2.03-.49.04-.78.04h-.23v.15c.18 0 .3.12.3.3v1.6c0 .79-.35 1.31-.65 1.31-.2 0-.48-.23-.48-1.07v-2.43h-.07c-.12 0-.3.07-.51.11-.2.03-.48.04-.78.04h-.23v.15c.18 0 .31.12.31.3v1.72c0 1.25.63 1.57 1.25 1.57s.98-.29 1.17-.77v.05c0 .42.3.72.83.72.43 0 .76-.2 1.06-.49l-.11-.09-.02-.02zM121.93 13.34a.63.63 0 01-.29.1c-.16 0-.19-.14-.19-.26v-3.14h-.07c-.12 0-.3.07-.51.11-.2.03-.49.04-.78.04h-.23v.15c.18 0 .3.12.3.3v1.6c0 .79-.35 1.31-.65 1.31-.2 0-.48-.23-.48-1.07v-2.43h-.07c-.12 0-.3.07-.51.11-.2.03-.48.04-.78.04h-.23v.15c.18 0 .31.12.31.3v1.72c0 1.25.63 1.57 1.25 1.57s.98-.29 1.17-.77v.05c0 .42.3.72.83.72.43 0 .76-.2 1.06-.49l-.11-.09-.02-.02zM112.8 10.51c-.35-.27-.92-.37-1.34-.37-.83 0-1.42.39-1.42 1.1 0 1.27 1.87 1.23 1.87 1.95 0 .24-.21.44-.58.44-.69 0-.87-.69-.98-1.23h-.31v1.11c.34.27.84.37 1.29.37 1.01 0 1.6-.49 1.6-1.13 0-1.13-1.87-1.23-1.87-1.97 0-.22.18-.4.49-.4.64 0 .82.69.93 1.23h.3V10.5h.02zM115.77 10.65v2.32c-.16.33-.5.67-.75.67-.35 0-.51-.64-.51-1.41 0-1.17.38-1.89.77-1.89.17 0 .35.14.49.31zm-.47-.53c-1.19 0-2.02.76-2.02 2.02 0 1.04.56 1.73 1.43 1.73.49 0 .83-.23 1.07-.5V15c-.03.07-.12.1-.27.1v.15h1.81v-.15c-.22 0-.29-.11-.29-.22h-.02v-4.27c-.45-.42-1.32-.5-1.7-.5h-.01zM127.44 13.67c.36.08.6.31.6.65 0 .22-.1.35-.24.35-.28 0-.34-.5-.36-.99zm-1.23-.86c-.11.28-.31.48-.62.48-.15 0-.43-.05-.43-.42 0-.51.51-.88 1.05-.93v.87zm-.59-2.72c-.42 0-.99.1-1.34.37v1.11h.31c.13-.65.45-1.26.97-1.26s.6.61.63 1.45c-.99 0-2.27.1-2.27 1.1 0 .54.38.99 1.06.99.42 0 .9-.17 1.22-.68 0 .17.01.33.04.49-.92.46-1.52 1.53-2.38 1.53-.72 0-.79-.75-.6-1.02-.16-.1-.36-.16-.56-.16-.42 0-.82.25-.82.8 0 .65.56.96 1.26.96 1.41 0 2.16-1.33 3.15-1.87.18.64.61 1 1.24 1 .55 0 .72-.26.72-.58 0-.43-.33-.74-.83-.84v-1.64c0-1.03-.72-1.73-1.82-1.73l.02-.02zM123.1 9.66c.07-.3-.07-.6-.31-.77-.02-.02-.04-.03-.06-.05a.452.452 0 01-.13-.34c0-.16.06-.3.18-.4s.27-.15.47-.15c.24 0 .44.08.58.25s.21.4.21.69c0 .46-.18.8-.53 1.01-.23.13-.77.34-.64.2s.2-.29.24-.44h-.01zM125.02 9.54l1.52.27.06-.25-1.51-.44-.07.42zM104.81 7.88c-.35.11-.63.11-.99.11-.74 0-1.37-.14-1.72-.14-.88 0-1.55.49-1.55 1.27 0 .7.53.95.91.95.32 0 .56-.25.56-.32s-.56-.39-.56-.95c0-.49.28-.74.63-.74.39 0 .77.39 1.09.7v5.17c0 .32-.35.6-.67.6-.39 0-.67-.32-.67-.77 0-.32.14-.49.28-.6-.07-.14-.28-.46-.67-.46-.56 0-1.02.6-1.02 1.06 0 1.06.92 1.44 1.44 1.44 1.34 0 1.55-1.02 2.6-1.3V8.58c0-.18.11-.32.32-.42v-.28h.02z"/><g><path class="cls-2" d="M115.02 18.91c-4.3 0-7.47 4.67-7.47 10.18s2.71 9.06 7.47 9.06 7.47-4.02 7.47-9.81c0-4.67-3.55-9.44-7.47-9.44zm.1 18.5c-1.68 0-2.71-4.2-2.71-8.5 0-5.89 1.59-9.16 2.62-9.16 1.87 0 2.71 4.48 2.71 9.16 0 4.39-1.03 8.5-2.62 8.5zM84.04 27.06h6.47v2.71h-6.47zM142.54 19.54L128.86 38.4l-2.99-.01 13.68-18.88 2.99.03zM127.2 23.5c0-2.3.68-4.03 1.79-4.03s1.8 1.79 1.8 4.05-.75 4.09-1.82 4.09-1.77-1.8-1.77-4.1zm-3.03.04c0 2.79 2.06 4.6 4.83 4.6s4.82-1.8 4.82-4.6-2.06-4.6-4.82-4.6-4.83 1.82-4.83 4.6zM138.04 33.79c0-2.3.68-4.03 1.79-4.03s1.8 1.79 1.8 4.05-.75 4.09-1.82 4.09-1.77-1.8-1.77-4.1zm-3.03.04c0 2.79 2.06 4.6 4.83 4.6s4.82-1.8 4.82-4.6-2.06-4.6-4.82-4.6-4.83 1.82-4.83 4.6zM101.72 28.15c2.73-.55 4.19-2.19 4.19-4.37s-2.73-4.92-6.65-4.92c-4.37 0-6.74 2.37-6.74 5.01 0 1.91 1.46 3.55 4.1 4.28-2.82.73-4.73 2.73-4.73 5.1 0 2.82 2.64 4.92 7.28 4.92s7.28-2.19 7.28-5.37c0-1.91-2-3.82-4.73-4.64zm-2.46-8.47c1.64 0 2.37 1.82 2.37 4.1 0 2.09-.91 4.01-2.37 4.01s-2.37-2-2.37-4.01c0-2.82 1.36-4.1 2.37-4.1zm0 17.93c-1.64 0-2.64-2.18-2.64-4.46 0-3.19 1.55-4.73 2.55-4.73 1.82 0 2.64 2.18 2.64 4.73 0 2.37-1 4.46-2.55 4.46z"/></g></g></svg>