<svg width="91" height="29" viewBox="0 0 91 29" fill="none" xmlns="http://www.w3.org/2000/svg"><g clip-path="url(#clip0_455_11140)" fill="#BF0000"><path d="M73.2 23.63H18.19l4.386 4.387L73.2 23.63zM23.287 5.875v.664c-1.02-.653-1.935-1.032-3.19-1.032-3.854 0-6.781 3.52-6.781 7.84 0 4.326 2.927 7.84 6.78 7.84 1.256 0 2.172-.379 3.191-1.032v.664h3.388V5.875h-3.388zm-3.196 11.721c-1.902 0-3.289-1.872-3.289-4.243 0-2.367 1.393-4.239 3.29-4.239 1.902 0 3.245 1.872 3.245 4.239 0 2.366-1.338 4.243-3.246 4.243zM50.423 5.875v8.784c0 1.647-1.13 3.036-2.774 3.036-1.645 0-2.774-1.389-2.774-3.036V5.875h-3.388v8.784c0 3.602 2.462 6.533 6.058 6.533 1.666 0 2.878-.922 2.878-.922v.555h3.388V5.875h-3.388zM81.993 20.825V12.04c0-1.647 1.13-3.036 2.774-3.036 1.645 0 2.774 1.39 2.774 3.036v8.785h3.388V12.04c0-3.601-2.462-6.533-6.058-6.533-1.666 0-2.878.922-2.878.922v-.554h-3.388v14.95h3.388z"/><path d="M3.547 20.825v-5.792h2.505l4.336 5.792h4.435l-5.24-6.99c1.633-1.174 2.707-3.085 2.707-5.248 0-3.552-2.883-6.44-6.43-6.44H.005v18.678h3.542zm0-15.126H5.86a2.9 2.9 0 012.895 2.894c0 1.603-1.3 2.898-2.895 2.898H3.547V5.7zM62.944 17.29c-.308.208-.691.367-1.135.367-.554 0-1.595-.423-1.595-1.834V9.427h2.9V5.88h-2.9V2.153h-3.388V5.88h-1.793v3.547h1.793v6.446c0 3.338 2.51 5.33 5.038 5.33.942 0 2.247-.307 3.316-.938l-2.237-2.976zM35.095 12.886l5.811-7.011H36.16l-4.062 5.21V.917h-3.492v19.908h3.492v-6.138l4.994 6.138h4.747l-6.743-7.94z"/><path d="M70.772 5.496c-3.92 0-6.732 3.453-6.732 7.857 0 4.628 3.53 7.856 7.072 7.856 1.787 0 4.078-.615 5.997-3.349l-2.993-1.73c-2.314 3.416-6.173 1.68-6.617-1.734h9.758c.833-5.37-2.632-8.9-6.485-8.9zm2.954 5.924h-6.1c.712-3.497 5.443-3.7 6.1 0z"/></g><defs><clipPath id="clip0_455_11140"><path fill="#fff" transform="translate(0 .5)" d="M0 0h91v28H0z"/></clipPath></defs></svg>